<?xml version="1.0" encoding="utf-8"?>
<!-- Generator: Adobe Illustrator 16.0.3, SVG Export Plug-In . SVG Version: 6.00 Build 0)  -->
<!DOCTYPE svg PUBLIC "-//W3C//DTD SVG 1.1//EN" "http://www.w3.org/Graphics/SVG/1.1/DTD/svg11.dtd">
<svg version="1.1" id="Layer_1" xmlns="http://www.w3.org/2000/svg" xmlns:xlink="http://www.w3.org/1999/xlink" x="0px" y="0px"
	 width="110.176px" height="180px" viewBox="0 0 110.176 180" enable-background="new 0 0 110.176 180" xml:space="preserve">
<path fill="#B8BCC0" d="M109.233,0.514l0.942-0.342c-4.797,0-9.596,0.086-14.393,0.086c-7.54,0.085-15.165,0.085-22.704,0.171
	C65.54,0.514,57.915,0.514,50.376,0.6c-7.54,0.086-15.165,0.086-22.704,0.172c-7.625,0-15.164,0.086-22.704,0.086L5.14,1.885
	L5.397,3.77L5.74,4.969l0.085,0.515v0.6L5.568,7.111L5.397,7.797L5.14,8.311L4.198,9.938l-0.171,0.429l-0.343,1.027l-0.085,0.514
	l-0.171,0.857v0.514l0.086,0.514l0.257,0.686l0.257,0.429l0.257,0.343l1.028,1.199l0.171,0.343l0.085,0.343l0.086,0.429v0.514
	l-0.086,0.686l-0.171,1.114v0.856l-0.514,1.628l-0.171,0.941l-0.086,1.8l-0.085,0.942l-0.942,3.084l-0.171,0.429v0.515l0.085,1.799
	l0.429,2.912l0.171,0.686l0.771,1.714l2.399,4.112l0.6,1.285l0.343,1.199l0.085,0.428v0.771v0.771l-0.171,1.199l-0.343,1.199
	l-0.343,0.942L6.34,51.147l-0.171,0.429L5.997,52.09v0.6v0.6l0.771,3.598l0.085,0.771v1.543l-0.171,1.713l-0.171,0.856l-0.343,0.601
	l-0.6,0.428l-0.685,0.428l-0.6,0.43l-0.6,0.6l-0.257,0.342l-0.171,0.429L3.17,65.455l-0.172,1.713l-0.257,1.028l-1.971,6.34
	l-0.685,1.199L0,76.164v0.514l0.257,0.686l0.257,0.429l0.771,1.027l0.171,0.343l0.171,0.515l0.086,0.686l-0.086,2.142l0.086,1.199
	l0.514,3.427l0.257,0.942l0.257,0.686l0.429,0.686l0.171,0.343l0.086,0.343l0.085,0.514v0.6l-0.171,1.028L2.998,93.47l-0.085,0.515
	l0.085,0.514l1.028,1.885l0.171,0.343l0.085,0.6v0.856L4.198,99.81l-0.171,0.857l-2.999,7.796l-0.171,0.771l-0.086,0.856v1.713
	l0.086,0.942l0.343,0.857l0.428,0.771l0.086,0.172h0.085l0.257-0.086l0.6-0.257l0.6-0.429l0.257-0.343l0.257-0.343l0.171-0.428
	l0.257-1.371l0.171-0.429l0.257-0.343l0.343-0.257l0.343-0.171l0.428-0.086h0.428h0.429l0.942,0.172l0.428,0.171l0.343,0.343
	l0.257,0.429l0.771,2.827l0.429,0.685l0.257,0.172l0.514,0.514l0.428,0.6v1.714v0.6c-0.085,2.142-0.085,4.284-0.085,6.34
	c-0.171,7.625-0.343,15.336-0.514,22.961c-0.171,7.367-0.257,14.649-0.428,22.018l-0.171,1.285l-0.6,2.741
	c0.514,1.543,1.028,3.17,1.542,4.713c7.454,0.257,14.907,0.6,22.446,0.856c7.454,0.257,14.907,0.6,22.361,0.856l0,0l-0.343-2.228
	l-1.114-1.628l-2.399-2.57l-0.514-0.856l-0.343-0.771l-0.171-0.857l-0.086-1.199v-1.371l0.257-0.942l0.428-0.771l0.428-1.114
	l0.429-3.341l0.428-1.371l0.942-0.514l1.371-0.514l0.514-1.285l0.257-3.599l1.028-4.369l0.171-1.8l-0.343-2.056v-0.942l0.343-3.17
	l0.428-0.429l0.257-0.429l0.085-0.428l-0.085-0.429l-0.171-0.257l-0.171-0.172l-0.086-0.257l0.086-1.027l0.257-0.771l0.428-0.686
	l0.429-0.6l0.685-1.456l0.171-1.8l-0.257-2.913l0.428-13.364l0.343-2.057l0.6-1.113l1.971-1.885l0.771-1.371l0.428-1.542
	l0.514-3.256l0.171-2.741l0.343-0.857l1.542-1.285l0.686-1.027l2.999-2.742l0.6-1.285l0.428-1.542l0.343-1.713l0.085-1.714
	l0.343-1.628l0.857-1.628l3.77-5.312l0.086-0.6l-0.343-0.429l-0.514-0.514L75.05,80.79l0.343-1.285l2.398-4.369l0.857-2.484
	l0.343-2.999v-6.939l0.428-4.026l1.285-2.827l2.056-1.714l2.913-0.6l2.741,0.086l1.371-0.257l1.114-0.771l1.885-2.398l0.942-0.857
	l4.969-3.17l1.457-0.6l0.514-0.686l1.028-1.713l1.97-1.628l1.114-1.456l0.086-1.371l-0.171-1.457l0.428-1.541l0.6-0.43h0.686
	l0.686-0.171l0.6-0.771v-0.771l-0.343-0.856l-0.686-1.114l-1.799-4.626l-0.343-1.114l-0.429-1.456l-0.771-1.114l-0.6-1.285
	l0.256-1.97l1.371-2.913c1.714-2.484,3.514-4.969,5.227-7.539l0.514-1.971l-0.428-1.113l-0.771-1.199l-0.428-1.885l0.171-2.143
	L109.233,0.514z"/>
<g>
	<path fill="#BA1A22" d="M30.071,37.611c-5.654,0-10.281,4.626-10.281,10.28s10.281,20.562,10.281,20.562
		s10.281-14.907,10.281-20.562S35.726,37.611,30.071,37.611z M30.071,53.032c-2.827,0-5.141-2.313-5.141-5.141
		s2.313-5.141,5.141-5.141s5.141,2.313,5.141,5.141S32.898,53.032,30.071,53.032z"/>
</g>
</svg>
